<?xml version="1.0" standalone="no"?>
<!DOCTYPE svg PUBLIC "-//W3C//DTD SVG 20010904//EN"
 "http://www.w3.org/TR/2001/REC-SVG-20010904/DTD/svg10.dtd">
<svg version="1.0" xmlns="http://www.w3.org/2000/svg"
 width="400.000000pt" height="400.000000pt" viewBox="0 0 400.000000 400.000000"
 preserveAspectRatio="xMidYMid meet">
<metadata>
Created by potrace 1.11, written by Peter Selinger 2001-2013
</metadata>
<g transform="translate(0.000000,400.000000) scale(0.100000,-0.100000)"
fill="#000000" stroke="none">
<path d="M0 2000 l0 -2000 2000 0 2000 0 0 2000 0 2000 -2000 0 -2000 0 0
-2000z m1970 1015 c0 -36 2 -65 5 -65 3 0 30 25 60 55 29 30 60 55 69 55 9 0
16 5 16 10 0 6 47 10 120 10 l120 0 0 -120 c0 -73 -4 -120 -10 -120 -5 0 -10
-9 -10 -20 0 -11 -5 -20 -10 -20 -13 0 -60 -45 -60 -57 0 -5 -9 -15 -20 -23
-33 -24 -23 -30 45 -30 58 0 65 -2 65 -20 0 -15 -7 -20 -25 -20 -14 0 -25 -6
-25 -12 0 -10 -33 -12 -140 -10 -131 3 -140 4 -140 23 0 10 -4 19 -10 19 -5 0
-10 -4 -10 -10 0 -18 -35 -11 -50 10 -8 11 -20 20 -27 20 -18 0 -16 37 3 44
20 8 9 26 -17 26 -18 0 -19 8 -19 134 0 79 4 137 10 141 6 3 10 15 10 26 0 14
7 19 25 19 24 0 25 -2 25 -65z m-330 15 c0 -5 -4 -10 -10 -10 -5 0 -10 5 -10
10 0 6 5 10 10 10 6 0 10 -4 10 -10z m1090 0 c0 -5 -7 -10 -15 -10 -8 0 -15 5
-15 10 0 6 7 10 15 10 8 0 15 -4 15 -10z m-1740 -200 c0 -5 -2 -10 -4 -10 -3
0 -8 5 -11 10 -3 6 -1 10 4 10 6 0 11 -4 11 -10z m2320 0 c0 -5 -4 -10 -10
-10 -5 0 -10 5 -10 10 0 6 5 10 10 10 6 0 10 -4 10 -10z m-1510 -60 c0 -5 -7
-10 -15 -10 -8 0 -15 -7 -15 -15 0 -8 7 -15 15 -15 18 0 20 -20 3 -20 -7 -1
-35 -25 -62 -55 -47 -51 -51 -54 -68 -38 -17 15 -18 15 -18 0 0 -10 6 -17 13
-18 10 0 10 -2 0 -6 -15 -5 -18 -33 -4 -33 5 0 12 7 15 16 3 8 10 12 16 9 13
-8 13 -25 -1 -25 -6 0 -17 -7 -25 -15 -14 -13 -14 -17 0 -30 18 -18 33 -19 39
-2 4 9 8 8 16 -3 8 -12 13 -11 31 9 11 14 23 21 27 18 3 -4 -5 -17 -18 -28
-16 -15 -20 -23 -11 -26 20 -7 14 -23 -20 -55 -24 -22 -29 -31 -18 -38 10 -6
8 -13 -8 -31 -19 -19 -22 -20 -28 -6 -3 10 -10 17 -15 17 -14 0 -11 -28 4 -33
9 -4 8 -8 -3 -16 -13 -10 -13 -12 0 -20 12 -8 10 -13 -10 -31 -20 -17 -22 -23
-10 -30 12 -7 11 -12 -8 -28 -25 -22 -28 -38 -9 -45 9 -4 9 -8 -2 -15 -12 -9
-12 -13 2 -26 18 -18 28 -13 81 40 47 47 59 66 46 74 -10 6 -6 15 13 34 14 14
29 26 32 26 8 0 55 47 55 55 0 10 89 95 100 95 5 0 10 5 10 10 0 6 12 23 26
37 21 21 28 23 35 12 8 -12 10 -12 18 1 6 8 13 11 17 7 4 -4 -3 -15 -14 -26
-12 -10 -22 -22 -22 -26 0 -8 -44 -50 -83 -80 -15 -11 -27 -23 -27 -28 0 -4
-19 -26 -41 -47 -35 -33 -40 -42 -29 -55 7 -9 8 -15 2 -15 -6 0 -12 6 -15 13
-2 6 -8 9 -12 5 -4 -4 -2 -14 5 -23 8 -10 9 -15 1 -15 -6 0 -11 -4 -11 -10 0
-5 7 -10 15 -10 9 0 18 -7 21 -15 4 -8 13 -15 22 -15 8 0 32 -18 53 -40 21
-22 43 -40 49 -40 5 0 10 -6 10 -13 0 -7 9 -18 20 -25 11 -7 20 -21 20 -32 0
-11 5 -20 10 -20 6 0 10 -9 10 -20 0 -11 4 -20 9 -20 5 0 11 -10 13 -22 2 -15
11 -24 26 -26 14 -2 22 -10 22 -23 0 -10 5 -19 10 -19 6 0 10 -9 10 -20 0 -13
7 -20 20 -20 11 0 20 7 20 15 0 9 6 18 14 21 8 3 13 17 12 35 -2 22 5 36 21
49 13 10 23 24 23 32 0 7 9 20 20 28 11 8 20 26 20 40 0 32 41 80 69 80 11 0
21 5 21 10 0 15 112 12 133 -4 9 -7 17 -21 17 -30 0 -9 5 -16 10 -16 6 0 10
-7 10 -15 0 -8 5 -15 10 -15 6 0 10 -42 10 -105 0 -63 -4 -105 -10 -105 -5 0
-10 -16 -10 -35 0 -19 -4 -35 -10 -35 -5 0 -10 -13 -10 -30 0 -20 -5 -30 -15
-30 -10 0 -15 -10 -15 -29 0 -17 -4 -32 -8 -35 -5 -3 -7 -18 -5 -33 4 -23 -1
-32 -21 -43 -15 -8 -26 -22 -26 -34 0 -12 -9 -28 -20 -36 -12 -8 -20 -26 -20
-42 0 -19 -5 -28 -15 -28 -9 0 -27 -12 -40 -26 -13 -14 -28 -23 -34 -20 -5 4
-12 2 -16 -4 -3 -5 -19 -10 -34 -10 -18 0 -35 -9 -47 -25 -15 -21 -27 -25 -66
-25 -27 0 -48 5 -48 10 0 6 -15 10 -34 10 -20 0 -36 6 -39 14 -3 8 -21 17 -39
21 -34 7 -108 74 -108 98 0 7 -9 19 -20 27 -11 8 -20 23 -20 33 0 20 -22 47
-39 47 -6 0 -11 9 -11 20 0 11 -4 20 -10 20 -5 0 -10 11 -10 25 0 14 -4 25
-10 25 -5 0 -10 8 -10 18 0 10 -9 24 -20 32 -11 8 -20 22 -20 32 0 10 -5 18
-11 18 -13 0 -39 25 -39 38 0 6 6 13 13 15 9 4 9 8 -2 15 -12 9 -12 13 2 26 8
9 20 16 26 16 6 0 11 5 11 10 0 6 -7 10 -15 10 -8 0 -15 7 -15 15 0 8 -4 15
-10 15 -14 0 -12 -28 3 -33 6 -2 8 -8 4 -13 -4 -5 -12 -2 -17 6 -5 8 -12 11
-17 7 -4 -5 -1 -12 7 -18 13 -8 13 -10 0 -19 -13 -9 -13 -11 0 -21 11 -8 12
-12 3 -16 -19 -7 -16 -23 9 -44 l21 -19 -24 -21 c-19 -16 -21 -22 -10 -29 12
-7 11 -11 -3 -26 -15 -15 -19 -15 -28 -3 -7 11 -11 11 -15 2 -2 -7 -12 -13
-21 -13 -15 1 -15 2 1 14 9 7 17 16 17 20 0 11 -28 6 -32 -6 -3 -7 -5 3 -5 22
0 19 2 29 5 23 4 -14 32 -18 32 -5 0 4 -9 13 -20 20 -11 7 -20 18 -19 25 0 9
2 9 6 0 6 -17 21 -16 39 1 18 18 18 24 0 42 -17 16 -36 19 -36 4 0 -5 7 -10
15 -10 8 0 15 -7 15 -15 0 -22 -18 -18 -31 7 -10 18 -8 24 10 39 11 9 21 20
21 23 0 12 -28 6 -33 -6 -2 -7 -4 5 -3 27 l1 40 73 -1 73 -2 -21 20 c-18 17
-24 18 -31 7 -8 -12 -11 -12 -19 1 -9 13 -11 13 -21 0 -8 -11 -12 -12 -16 -2
-2 6 -11 12 -18 12 -7 0 -15 -6 -17 -12 -3 -7 -5 3 -5 22 0 19 2 29 5 23 4
-14 32 -18 32 -5 0 4 -9 13 -20 20 -11 7 -20 18 -19 25 0 9 2 9 6 0 5 -13 33
-18 33 -7 0 4 -8 13 -17 20 -17 12 -17 13 0 19 9 4 17 11 17 16 0 13 -28 11
-32 -2 -2 -6 -4 42 -4 106 0 64 2 112 4 106 4 -12 32 -15 32 -3 0 4 -9 13 -19
19 -14 9 -19 23 -18 49 1 20 3 32 5 25 4 -12 32 -16 32 -3 0 4 -9 13 -20 20
-11 7 -20 18 -19 25 0 9 2 9 6 0 5 -15 33 -18 33 -4 0 5 -8 12 -17 16 -17 6
-17 7 0 19 21 16 22 26 2 26 -8 0 -15 -5 -15 -12 0 -6 -3 -8 -7 -4 -4 4 12 24
35 45 44 40 51 55 30 65 -7 3 -2 3 12 -1 21 -5 23 -4 13 9 -10 11 -7 19 11 41
13 15 26 27 30 27 8 0 76 67 76 75 0 3 6 12 13 20 14 17 37 20 37 5z m840
-129 c0 -6 -4 -13 -10 -16 -5 -3 -10 1 -10 9 0 9 5 16 10 16 6 0 10 -4 10 -9z
m405 -30 c-4 -3 -10 0 -14 7 -6 10 -11 10 -21 -2 -13 -16 -35 -12 -24 5 3 5
10 7 15 4 5 -4 9 2 9 11 0 16 2 16 20 -1 11 -10 18 -21 15 -24z m-1890 -77
c-9 -9 -19 -13 -23 -10 -3 4 0 11 8 17 13 8 13 11 -3 20 -9 6 -15 15 -11 20 4
6 14 2 26 -10 17 -20 18 -23 3 -37z m-35 16 c0 -5 -4 -10 -10 -10 -5 0 -10 5
-10 10 0 6 5 10 10 10 6 0 10 -4 10 -10z m-640 -60 c0 -5 -7 -10 -15 -10 -8 0
-15 5 -15 10 0 6 7 10 15 10 8 0 15 -4 15 -10z m3070 0 c0 -5 -7 -10 -15 -10
-8 0 -15 5 -15 10 0 6 7 10 15 10 8 0 15 -4 15 -10z m-2024 -68 c-2 -32 -6
-64 -10 -70 -10 -17 -26 -15 -26 3 0 8 -4 15 -10 15 -15 0 -12 -19 4 -36 18
-17 33 -18 39 -1 4 9 6 9 6 0 1 -7 -8 -18 -19 -25 -11 -7 -20 -16 -20 -20 0
-13 28 -9 33 5 2 6 4 -4 4 -23 0 -19 -2 -29 -4 -22 -5 13 -33 17 -33 4 0 -4 9
-13 20 -20 11 -7 20 -18 19 -25 0 -9 -2 -9 -6 1 -2 6 -9 12 -15 12 -13 0 -38
-26 -38 -39 0 -17 17 -13 24 6 12 31 29 -4 32 -67 2 -51 -1 -63 -17 -73 -10
-6 -19 -15 -19 -19 0 -13 28 -9 33 5 2 6 3 -4 2 -23 -4 -50 -4 -50 -16 -50
-11 0 -39 -25 -39 -35 0 -10 27 -35 38 -35 6 0 12 5 14 11 2 6 4 -42 4 -106 0
-64 -2 -112 -4 -106 -5 15 -29 14 -35 -1 -3 -9 -11 -5 -26 11 -22 26 -43 22
-21 -4 7 -8 8 -15 3 -15 -5 0 -15 9 -23 20 -8 11 -18 20 -23 20 -12 0 -37 -27
-37 -39 0 -13 5 -14 95 -15 l70 -1 0 -129 c1 -113 -1 -130 -17 -140 -10 -6
-18 -14 -18 -18 0 -9 23 -6 30 4 3 4 6 -36 6 -89 0 -53 -2 -91 -4 -84 -2 6 -8
11 -14 11 -12 0 -38 26 -38 38 0 6 6 12 13 15 7 2 0 16 -21 35 -32 30 -33 33
-17 48 14 14 18 15 25 3 5 -7 12 -10 16 -6 4 4 0 15 -9 24 -13 13 -19 14 -31
3 -10 -7 -16 -8 -16 -2 0 6 6 12 13 15 6 2 9 8 5 12 -4 4 -14 2 -23 -5 -10 -8
-15 -9 -15 -1 0 6 5 11 10 11 6 0 10 7 10 15 0 20 -16 19 -24 -1 -3 -8 -10
-12 -16 -9 -15 9 -12 25 5 25 8 0 15 5 15 10 0 6 -5 10 -11 10 -6 0 -18 7 -26
16 -14 13 -14 17 -2 26 11 7 11 11 2 15 -7 2 -13 11 -13 18 0 7 -6 16 -12 18
-10 4 -9 8 2 16 13 10 13 12 0 21 -13 9 -13 11 -1 19 12 8 12 12 2 24 -8 11
-9 17 -1 22 8 5 8 10 0 20 -8 9 -8 15 0 20 15 9 12 25 -6 25 -19 0 -44 -24
-44 -43 0 -8 -7 -17 -15 -21 -8 -3 -15 -11 -15 -19 0 -18 -23 -67 -32 -67 -5
0 -8 -9 -8 -20 0 -27 -63 -90 -90 -90 -12 0 -18 -4 -15 -10 3 -5 -1 -10 -9
-10 -9 0 -16 -7 -16 -15 0 -10 -10 -15 -29 -15 -17 0 -33 -5 -36 -11 -4 -5
-17 -9 -28 -8 -12 1 -29 -1 -37 -4 -37 -14 -59 -14 -64 -1 -3 8 -12 11 -21 8
-18 -7 -65 14 -65 28 0 10 -66 78 -75 78 -10 0 -35 28 -35 39 0 6 -4 11 -10
11 -5 0 -10 9 -10 20 0 13 -7 20 -20 20 -13 0 -20 7 -20 20 0 11 -4 20 -8 20
-10 0 -52 77 -52 96 0 8 -7 14 -15 14 -8 0 -15 9 -15 20 0 11 -4 20 -10 20 -5
0 -10 16 -10 35 0 19 -4 35 -10 35 -5 0 -10 9 -10 20 0 11 -4 20 -10 20 -5 0
-10 11 -10 25 0 14 -4 25 -10 25 -6 0 -10 38 -10 95 0 57 4 95 10 95 6 0 10 9
10 20 0 11 5 20 10 20 6 0 10 11 10 25 0 25 0 25 95 25 52 0 95 -4 95 -9 0 -5
10 -11 23 -13 14 -2 23 -11 25 -25 2 -13 8 -23 13 -23 5 0 9 -8 9 -18 0 -10 9
-24 20 -32 11 -8 20 -20 20 -27 0 -7 5 -13 10 -13 6 0 10 -7 10 -15 0 -9 7
-18 15 -21 8 -4 15 -12 15 -19 0 -7 10 -32 22 -54 22 -42 58 -57 58 -23 1 16
43 72 55 72 12 0 35 29 35 44 0 9 5 16 10 16 6 0 10 9 10 20 0 22 41 70 60 70
6 0 10 10 8 23 -2 16 3 23 20 25 12 2 22 8 22 13 0 5 13 9 29 9 17 0 33 5 36
10 3 6 28 10 56 10 40 0 49 -3 49 -17 0 -10 7 -26 14 -35 16 -22 56 -24 56 -3
0 8 -7 15 -15 15 -8 0 -15 5 -15 10 0 6 5 10 11 10 6 0 18 7 26 16 13 13 14
17 3 24 -11 7 -6 16 21 41 21 20 29 34 22 36 -19 7 -16 23 9 45 18 15 20 21 9
28 -12 7 -12 11 2 24 8 9 20 16 26 16 6 0 11 7 11 15 0 8 2 15 4 15 2 0 3 -26
2 -58z m-226 -106 c0 -11 -19 -15 -25 -6 -3 5 1 10 9 10 9 0 16 -2 16 -4z
m1210 -26 c0 -5 -4 -10 -9 -10 -6 0 -13 5 -16 10 -3 6 1 10 9 10 9 0 16 -4 16
-10z m730 -80 c0 -5 18 -10 40 -10 27 0 43 -5 46 -15 4 -8 17 -15 31 -15 13 0
21 -4 18 -10 -3 -5 2 -10 12 -10 37 -1 53 -25 53 -79 0 -39 -4 -51 -15 -51 -8
0 -15 -4 -15 -10 0 -5 -9 -10 -21 -10 -11 0 -17 -4 -14 -10 4 -6 -12 -10 -39
-10 -25 0 -46 -4 -46 -10 0 -6 -35 -10 -84 -10 -47 0 -88 -4 -91 -10 -4 -6 8
-10 29 -10 25 0 36 -4 36 -15 0 -10 10 -15 30 -15 17 0 30 -4 30 -10 0 -5 16
-10 35 -10 19 0 35 -4 35 -10 0 -5 9 -10 20 -10 11 0 20 -4 20 -10 0 -5 7 -10
15 -10 8 0 33 -18 55 -40 22 -22 40 -47 40 -55 0 -8 5 -15 10 -15 6 0 10 -25
10 -55 0 -30 -4 -55 -10 -55 -5 0 -10 -9 -10 -20 0 -11 -4 -20 -10 -20 -5 0
-10 -9 -10 -19 0 -10 -7 -21 -15 -25 -8 -3 -15 -14 -15 -24 0 -23 -19 -42 -42
-42 -10 0 -18 -4 -18 -10 0 -5 -9 -10 -20 -10 -11 0 -20 -4 -20 -10 0 -5 -9
-10 -19 -10 -13 0 -21 -8 -23 -22 -3 -20 -11 -24 -63 -31 -74 -10 -356 0 -369
13 -6 6 -18 10 -28 10 -10 0 -18 5 -18 10 0 14 -66 80 -80 80 -17 0 -12 80 5
86 8 4 15 15 15 25 0 10 7 19 15 19 9 0 18 7 21 15 4 8 14 15 23 15 10 0 21 3
24 7 4 4 24 7 45 7 31 1 38 5 40 24 3 19 -1 22 -32 22 -20 0 -36 5 -36 10 0 6
-8 10 -18 10 -10 0 -24 9 -32 20 -8 11 -20 20 -27 20 -20 0 -53 33 -53 52 0
10 -4 18 -10 18 -6 0 -10 32 -10 75 0 43 4 75 10 75 6 0 10 6 10 14 0 16 75
96 90 96 6 0 20 9 32 20 12 11 30 20 40 20 11 0 16 5 13 10 -4 6 8 10 29 10
25 0 36 4 36 15 0 12 15 15 75 15 43 0 75 4 75 10 0 6 32 10 75 10 43 0 75 -4
75 -10z m-1720 -280 c-12 -23 -30 -27 -30 -6 0 8 8 17 18 19 9 3 18 5 20 6 1
0 -2 -8 -8 -19z m2220 -70 c0 -5 -4 -10 -10 -10 -5 0 -10 5 -10 10 0 6 5 10
10 10 6 0 10 -4 10 -10z m-3480 -70 c0 -5 -4 -10 -10 -10 -5 0 -10 5 -10 10 0
6 5 10 10 10 6 0 10 -4 10 -10z m1145 -100 c3 -5 -1 -10 -10 -10 -9 0 -13 5
-10 10 3 6 8 10 10 10 2 0 7 -4 10 -10z m228 -27 c-7 -3 -13 -11 -13 -18 0 -7
6 -16 13 -18 9 -4 8 -8 -3 -16 -12 -8 -11 -13 10 -32 17 -14 21 -23 13 -26 -7
-3 -13 -11 -13 -18 0 -7 6 -16 13 -18 9 -4 9 -8 -2 -15 -12 -9 -12 -13 2 -26
8 -9 20 -16 26 -16 6 0 11 -4 11 -10 0 -5 -7 -10 -15 -10 -8 0 -15 -7 -15 -15
0 -8 7 -15 16 -15 8 0 12 -5 9 -10 -5 -8 -11 -7 -21 1 -21 17 -29 3 -10 -16 9
-9 16 -13 16 -10 0 4 23 -17 52 -46 29 -29 46 -55 40 -57 -14 -4 -16 -32 -3
-32 5 0 12 7 15 16 5 13 15 7 52 -31 33 -36 48 -45 54 -36 6 10 16 6 40 -18
27 -25 30 -32 16 -37 -18 -7 -22 -24 -5 -24 14 0 39 25 39 39 0 6 5 11 10 11
6 0 10 -5 10 -11 0 -6 7 -18 16 -26 13 -14 17 -14 26 -2 7 11 11 11 15 2 6
-15 33 -17 33 -3 0 6 5 10 11 10 8 0 7 -5 -1 -15 -21 -25 -2 -30 19 -6 l20 23
27 -27 c21 -21 24 -29 13 -35 -7 -5 -10 -12 -6 -16 23 -23 45 51 24 83 -4 6
-3 14 3 18 5 3 10 -1 10 -9 0 -9 7 -16 15 -16 8 0 15 7 15 15 0 8 5 15 10 15
6 0 10 -7 10 -15 0 -23 15 -18 30 10 13 25 30 33 30 15 0 -14 27 -12 33 3 4 9
8 9 15 -2 9 -12 16 -9 40 17 17 18 35 32 40 32 6 0 13 6 15 13 4 9 8 8 16 -3
7 -10 11 -11 11 -2 0 6 7 12 15 12 8 0 15 4 15 10 0 12 88 100 100 100 6 0 10
8 10 17 0 13 3 14 11 6 9 -9 8 -16 -4 -27 -9 -9 -20 -16 -26 -16 -16 0 -13
-11 7 -26 11 -9 13 -13 4 -14 -14 0 -42 -24 -42 -35 0 -10 -69 -75 -80 -75 -5
0 -10 -6 -10 -12 0 -9 -3 -8 -10 2 -5 8 -12 11 -16 7 -4 -4 -2 -13 4 -19 9 -9
-3 -26 -50 -72 -34 -32 -64 -54 -66 -48 -2 7 -8 12 -13 12 -11 0 -59 -45 -59
-55 0 -13 -31 -37 -38 -30 -4 4 -1 10 6 12 16 6 15 21 -2 39 -17 16 -36 19
-36 4 0 -5 7 -10 15 -10 21 0 19 -12 -5 -32 -18 -16 -20 -16 -39 7 -10 14 -22
25 -25 25 -14 0 -5 -24 16 -41 11 -11 18 -22 14 -26 -4 -4 -11 -1 -17 7 -8 13
-10 13 -19 0 -9 -13 -11 -13 -20 0 -9 13 -11 13 -21 0 -8 -11 -12 -12 -16 -2
-2 6 -11 12 -18 12 -7 0 -16 -6 -18 -12 -4 -10 -8 -9 -16 2 -10 13 -12 13 -21
0 -9 -13 -11 -13 -20 0 -9 13 -11 13 -21 0 -8 -11 -12 -12 -16 -2 -6 16 -30
16 -36 0 -4 -10 -8 -9 -16 2 -9 13 -12 13 -20 1 -8 -12 -12 -11 -28 4 -13 13
-14 20 -5 23 12 4 17 32 6 32 -4 0 -13 -8 -20 -17 -13 -17 -13 -17 -14 0 0 22
-9 22 -26 0 -12 -17 -13 -17 -19 0 -9 21 -25 23 -25 2 0 -8 -4 -15 -10 -15 -5
0 -10 5 -10 10 0 11 -45 60 -54 60 -9 0 -96 92 -96 101 0 5 -8 9 -17 9 -17 1
-17 1 0 14 9 7 17 16 17 20 0 11 -28 6 -32 -6 -3 -7 -5 3 -5 22 0 19 2 29 5
23 4 -15 32 -18 32 -4 0 5 -8 12 -17 16 -17 6 -17 7 0 19 9 7 17 16 17 20 0
11 -28 6 -33 -6 -4 -10 -6 -10 -6 -1 -1 7 8 18 19 25 11 7 20 16 20 20 0 13
-28 9 -32 -4 -2 -6 -4 13 -5 43 0 30 2 48 4 42 5 -13 33 -18 33 -7 0 4 -8 13
-17 20 -17 12 -17 13 0 19 9 4 17 11 17 16 0 13 -28 11 -32 -2 -2 -6 -4 33 -4
86 0 53 2 92 4 86 4 -13 32 -15 32 -2 0 5 -8 12 -17 16 -17 6 -17 7 -1 19 10
7 32 13 50 13 18 0 27 -2 21 -4z m-1387 -198 c13 -13 13 -17 -5 -37 -17 -17
-21 -19 -21 -6 0 9 -5 18 -12 20 -9 3 -8 9 2 21 19 20 18 20 36 2z m2454 -38
c0 -7 -9 -18 -20 -25 -12 -7 -20 -8 -20 -2 0 5 5 10 10 10 6 0 10 7 10 15 0 8
5 15 10 15 6 0 10 -6 10 -13z m-1490 -68 c0 -5 -4 -9 -10 -9 -5 0 -10 7 -10
16 0 8 5 12 10 9 6 -3 10 -10 10 -16z m2120 -220 c0 -5 -4 -9 -10 -9 -5 0 -10
7 -10 16 0 8 5 12 10 9 6 -3 10 -10 10 -16z m-2530 -13 c0 -3 -4 -8 -10 -11
-5 -3 -10 -1 -10 4 0 6 5 11 10 11 6 0 10 -2 10 -4z m1380 -6 c0 -5 -2 -10 -4
-10 -3 0 -8 5 -11 10 -3 6 -1 10 4 10 6 0 11 -4 11 -10z m370 0 c0 -5 -2 -10
-4 -10 -3 0 -8 5 -11 10 -3 6 -1 10 4 10 6 0 11 -4 11 -10z m-1280 -100 c0 -5
-5 -10 -11 -10 -5 0 -7 5 -4 10 3 6 8 10 11 10 2 0 4 -4 4 -10z m1956 -205
c14 -13 14 -17 0 -31 -15 -14 -17 -14 -32 0 -12 13 -13 18 -2 30 16 19 16 19
34 1z m-1496 -165 c0 -5 -4 -10 -10 -10 -5 0 -10 5 -10 10 0 6 5 10 10 10 6 0
10 -4 10 -10z"/>
<path d="M2093 2895 c-17 -19 -16 -63 1 -81 32 -31 100 0 93 43 -7 46 -67 70
-94 38z"/>
<path d="M1720 2690 c-19 -21 -41 -39 -47 -40 -18 0 -16 -27 2 -27 8 0 15 4
15 9 0 5 18 27 40 48 22 21 40 41 40 44 0 14 -18 2 -50 -34z"/>
<path d="M1601 2533 c-19 -20 -21 -27 -10 -35 11 -7 11 -11 2 -15 -7 -2 -13
-11 -13 -18 0 -7 6 -16 13 -18 9 -4 8 -8 -3 -16 -13 -9 -13 -12 -1 -20 12 -8
12 -12 -2 -25 -8 -9 -20 -16 -26 -16 -6 0 -11 -7 -11 -15 0 -8 5 -15 11 -15 6
0 17 -7 25 -15 14 -13 14 -17 0 -30 -8 -8 -19 -15 -25 -15 -6 0 -11 -4 -11
-10 0 -5 7 -10 15 -10 8 0 15 -4 15 -10 0 -5 -7 -10 -15 -10 -8 0 -15 -4 -15
-10 0 -5 7 -10 15 -10 8 0 15 -4 15 -10 0 -5 -7 -10 -15 -10 -8 0 -15 -7 -15
-15 0 -8 7 -15 15 -15 8 0 15 -4 15 -10 0 -5 -7 -10 -15 -10 -8 0 -15 -4 -15
-10 0 -5 5 -10 11 -10 18 0 46 -33 31 -38 -16 -5 -16 -29 1 -35 9 -4 8 -8 -3
-16 -13 -10 -13 -12 0 -21 13 -9 13 -11 0 -19 -8 -6 -11 -13 -7 -18 5 -4 12
-1 18 7 8 13 10 13 19 0 9 -13 11 -13 21 0 8 11 12 12 16 3 6 -17 21 -16 40 3
14 13 14 17 2 24 -11 7 -9 13 9 28 12 11 22 24 22 30 0 6 6 13 13 15 9 4 9 8
-2 15 -11 8 -9 15 12 36 14 14 31 26 37 26 5 0 10 7 10 15 0 8 -7 15 -15 15
-8 0 -15 -7 -15 -15 0 -8 -4 -15 -10 -15 -5 0 -10 5 -10 11 0 14 25 39 39 39
6 0 11 5 11 10 0 6 -7 10 -15 10 -8 0 -15 5 -15 10 0 6 5 10 10 10 11 0 100
85 100 95 0 8 47 55 55 55 10 0 55 48 55 59 0 5 6 11 13 14 6 2 9 8 5 12 -7 7
-38 -17 -38 -30 0 -8 -27 -35 -35 -35 -6 0 -75 -67 -75 -74 0 -6 -71 -76 -77
-76 -2 0 -12 -7 -20 -16 -14 -13 -14 -17 -2 -24 11 -7 9 -13 -9 -28 -12 -11
-22 -22 -22 -26 0 -9 -47 -56 -56 -56 -4 0 -15 -9 -25 -21 l-18 -21 -27 27
c-22 22 -24 29 -13 37 11 7 11 11 2 15 -19 7 -16 23 9 45 19 16 20 21 8 28
-12 7 -10 13 10 30 l25 22 -24 19 c-13 11 -21 23 -17 26 4 4 11 1 16 -7 5 -8
13 -11 17 -6 4 5 2 11 -4 13 -18 6 -16 21 4 41 12 12 18 13 21 4 4 -14 32 -16
32 -2 0 6 -7 10 -15 10 -8 0 -15 5 -15 10 0 6 5 10 10 10 12 0 60 45 60 55 0
4 -8 14 -17 23 -12 12 -18 13 -21 4 -6 -19 -20 -15 -50 15 -17 17 -22 28 -14
31 13 4 17 22 5 21 -5 0 -19 -12 -32 -26z m34 -38 c14 -13 25 -29 25 -35 0 -5
7 -10 15 -10 8 0 15 7 15 15 0 8 5 15 10 15 6 0 10 -5 10 -11 0 -11 -25 -39
-35 -39 -10 0 -75 -69 -75 -80 0 -5 -4 -10 -10 -10 -17 0 -11 22 12 42 19 16
20 21 8 29 -13 8 -13 10 0 20 11 8 12 12 3 16 -7 2 -13 11 -13 18 0 7 6 16 13
19 10 5 10 7 0 12 -13 6 -18 24 -8 24 3 0 17 -11 30 -25z m-15 -201 c0 -3 -7
-12 -15 -21 -20 -19 -32 -10 -14 11 14 15 29 21 29 10z m-20 -64 c0 -5 -4 -10
-10 -10 -5 0 -10 5 -10 10 0 6 5 10 10 10 6 0 10 -4 10 -10z m150 -66 c0 -4
-10 -15 -22 -26 -19 -16 -20 -21 -8 -29 11 -8 12 -12 3 -16 -7 -2 -13 -9 -13
-15 0 -5 -7 -16 -15 -25 -13 -12 -18 -13 -31 -3 -8 7 -17 10 -20 7 -8 -8 21
-37 35 -37 6 0 11 -4 11 -10 0 -14 -27 -12 -33 3 -4 9 -8 9 -15 -2 -9 -12 -13
-12 -27 3 -10 9 -14 20 -11 24 4 3 11 0 16 -8 5 -8 13 -11 17 -6 4 4 -2 16
-14 26 -24 19 -30 40 -13 40 6 0 10 -7 10 -15 0 -8 5 -15 10 -15 6 0 10 5 10
11 0 12 25 39 37 39 4 0 19 14 33 30 24 28 40 38 40 24z"/>
<path d="M1620 2466 c0 -8 6 -17 13 -19 9 -4 8 -8 -3 -16 -8 -5 -11 -13 -8
-17 4 -3 15 2 25 12 13 12 14 19 5 22 -6 2 -12 10 -12 18 0 8 -4 14 -10 14 -5
0 -10 -6 -10 -14z"/>
<path d="M1690 2100 c0 -5 -7 -10 -15 -10 -8 0 -15 -7 -15 -15 0 -8 7 -15 15
-15 8 0 15 7 15 15 0 8 5 15 10 15 6 0 10 5 10 10 0 6 -4 10 -10 10 -5 0 -10
-4 -10 -10z"/>
<path d="M1550 1925 c0 -8 5 -15 11 -15 6 0 18 -7 26 -16 13 -13 14 -17 3 -24
-11 -7 -10 -12 4 -25 9 -10 20 -14 24 -11 3 4 0 11 -8 17 -13 8 -13 10 0 19
13 9 13 11 0 21 -11 8 -12 12 -2 16 14 6 16 33 2 33 -5 0 -10 -7 -10 -15 0 -8
-4 -15 -10 -15 -5 0 -10 7 -10 15 0 8 -7 15 -15 15 -8 0 -15 -7 -15 -15z"/>
<path d="M1591 1784 c-12 -14 -12 -17 0 -25 12 -8 12 -10 0 -18 -12 -8 -12
-12 3 -26 9 -10 20 -14 24 -11 3 4 0 11 -8 16 -12 7 -10 12 9 29 21 18 22 22
8 36 -19 18 -19 18 -36 -1z m29 -14 c0 -5 -4 -10 -10 -10 -5 0 -10 5 -10 10 0
6 5 10 10 10 6 0 10 -4 10 -10z"/>
<path d="M1490 2420 c0 -5 7 -10 15 -10 8 0 15 5 15 10 0 6 -7 10 -15 10 -8 0
-15 -4 -15 -10z"/>
<path d="M1490 2380 c0 -5 7 -10 15 -10 8 0 15 5 15 10 0 6 -7 10 -15 10 -8 0
-15 -4 -15 -10z"/>
<path d="M1451 2293 c-19 -20 -21 -27 -10 -33 10 -7 8 -14 -11 -31 -17 -14
-21 -23 -12 -26 6 -3 12 -9 12 -15 0 -11 -25 -38 -35 -38 -4 0 -14 -7 -22 -16
-14 -13 -14 -17 -2 -26 11 -7 11 -11 2 -15 -7 -2 -13 -11 -13 -18 0 -7 6 -15
13 -18 8 -3 4 -12 -13 -26 -20 -18 -22 -24 -10 -31 11 -7 11 -11 1 -23 -17
-22 2 -31 66 -32 39 -1 54 3 64 17 8 10 19 18 26 18 7 0 13 5 13 10 0 6 -5 10
-11 10 -6 0 -17 7 -25 15 -14 13 -14 17 0 30 8 8 19 15 25 15 6 0 11 7 11 15
0 8 -7 15 -15 15 -8 0 -15 -7 -15 -15 0 -8 -4 -15 -10 -15 -5 0 -10 5 -10 11
0 14 25 39 39 39 6 0 11 5 11 10 0 6 -7 10 -15 10 -8 0 -15 5 -15 10 0 6 7 10
15 10 8 0 15 5 15 10 0 14 -28 12 -32 -2 -3 -9 -9 -8 -21 4 -22 22 -21 27 5
50 19 16 20 21 8 29 -13 8 -13 10 0 19 13 9 13 11 0 21 -11 8 -12 12 -2 16 13
5 17 23 5 22 -5 0 -19 -12 -32 -26z m19 -23 c0 -5 -4 -10 -10 -10 -5 0 -10 5
-10 10 0 6 5 10 10 10 6 0 10 -4 10 -10z m0 -36 c0 -3 -7 -12 -15 -21 -20 -19
-32 -10 -14 11 14 15 29 21 29 10z m-4 -89 l26 -26 -21 -18 c-24 -21 -27 -37
-8 -44 9 -4 8 -8 -3 -16 -12 -8 -11 -13 9 -30 22 -19 22 -21 6 -37 -14 -15
-18 -15 -26 -3 -8 12 -11 12 -20 -1 -8 -11 -12 -12 -16 -2 -2 6 -11 12 -18 12
-7 0 -15 -6 -18 -12 -2 -7 -8 -9 -13 -5 -5 4 -2 12 6 18 13 8 13 10 1 18 -12
8 -12 12 2 25 8 9 18 16 22 16 4 0 13 6 21 14 8 8 14 17 14 21 0 10 -28 35
-39 35 -6 0 -11 5 -11 10 0 6 6 10 13 10 7 0 19 9 27 20 18 25 16 25 46 -5z
m-56 -70 c0 -8 -7 -15 -15 -15 -8 0 -15 7 -15 15 0 8 7 15 15 15 8 0 15 -7 15
-15z"/>
<path d="M1422 2134 c-11 -12 -10 -17 2 -30 15 -14 17 -14 32 0 14 14 14 18 0
31 -18 18 -18 18 -34 -1z m28 -14 c0 -5 -4 -10 -10 -10 -5 0 -10 5 -10 10 0 6
5 10 10 10 6 0 10 -4 10 -10z"/>
<path d="M1420 2040 c-8 -11 -20 -20 -27 -20 -7 0 -13 -4 -13 -10 0 -5 6 -10
14 -10 8 0 17 -6 19 -12 4 -10 8 -9 16 2 10 13 12 13 20 0 6 -8 13 -11 17 -7
4 4 -4 17 -17 28 -16 15 -20 23 -11 26 6 3 12 9 12 14 0 15 -15 10 -30 -11z
m10 -30 c0 -5 -4 -10 -10 -10 -5 0 -10 5 -10 10 0 6 5 10 10 10 6 0 10 -4 10
-10z"/>
<path d="M1340 1932 c0 -4 6 -14 12 -20 10 -10 10 -15 -2 -22 -13 -9 -13 -11
0 -20 13 -9 13 -11 0 -20 -13 -9 -13 -11 -1 -19 13 -8 13 -12 1 -26 -12 -14
-12 -18 1 -26 12 -8 12 -10 0 -18 -12 -8 -11 -12 4 -28 13 -13 20 -14 23 -5 5
16 29 16 35 0 4 -10 8 -9 16 2 8 12 13 11 32 -10 14 -17 23 -21 26 -12 3 6 11
12 19 12 8 0 14 5 14 10 0 6 -7 10 -15 10 -8 0 -15 5 -15 10 0 6 7 10 15 10 8
0 15 5 15 10 0 6 -6 10 -14 10 -8 0 -16 6 -19 13 -2 6 -8 8 -13 4 -5 -4 -2
-12 6 -17 8 -5 11 -12 7 -17 -5 -4 -12 -1 -18 7 -8 13 -10 13 -19 0 -9 -13
-11 -13 -21 0 -8 11 -12 12 -16 3 -2 -7 -9 -13 -15 -13 -15 0 -41 30 -33 38 4
4 10 1 12 -5 3 -7 9 -13 15 -13 13 0 38 26 38 39 0 17 -17 13 -24 -6 -6 -14
-9 -14 -27 6 -12 12 -18 25 -14 29 4 4 10 1 12 -5 3 -7 11 -13 18 -13 7 0 16
6 18 13 4 9 8 8 16 -3 10 -13 12 -13 21 0 9 13 11 13 21 0 8 -11 12 -12 16 -2
2 6 11 12 19 12 8 0 14 5 14 10 0 6 -5 10 -10 10 -6 0 -22 11 -35 25 -14 13
-25 29 -25 35 0 5 -4 10 -10 10 -5 0 -10 -5 -10 -11 0 -11 -25 -39 -35 -39
-10 0 -35 28 -35 39 0 6 -4 11 -10 11 -5 0 -10 -4 -10 -8z m127 -48 c14 -14
22 -28 19 -32 -4 -3 -11 0 -17 8 -8 13 -10 13 -19 0 -9 -13 -11 -13 -21 0 -8
11 -12 12 -16 3 -2 -7 -9 -13 -15 -13 -15 0 -41 30 -33 38 4 4 10 1 12 -5 7
-19 27 -16 43 7 18 25 16 25 47 -6z m-87 -134 c0 -5 -4 -10 -10 -10 -5 0 -10
5 -10 10 0 6 5 10 10 10 6 0 10 -4 10 -10z m50 0 c0 -5 -4 -10 -10 -10 -5 0
-10 5 -10 10 0 6 5 10 10 10 6 0 10 -4 10 -10z m47 -5 c8 -9 13 -19 10 -22 -6
-5 -37 21 -37 31 0 10 11 6 27 -9z"/>
<path d="M1430 1880 c0 -5 5 -10 10 -10 6 0 10 5 10 10 0 6 -4 10 -10 10 -5 0
-10 -4 -10 -10z"/>
<path d="M1380 1925 c0 -8 7 -15 15 -15 8 0 15 7 15 15 0 8 -7 15 -15 15 -8 0
-15 -7 -15 -15z"/>
<path d="M1442 1809 c-7 -12 -11 -23 -8 -26 7 -7 36 23 36 36 0 18 -14 13 -28
-10z"/>
<path d="M1490 1815 c0 -8 7 -15 15 -15 8 0 15 7 15 15 0 8 -7 15 -15 15 -8 0
-15 -7 -15 -15z"/>
<path d="M1360 1646 c0 -8 6 -17 13 -19 9 -4 8 -8 -3 -16 -13 -10 -13 -12 0
-21 13 -9 13 -11 0 -21 -11 -8 -12 -12 -2 -16 6 -2 12 -11 12 -19 0 -8 7 -14
15 -14 8 0 15 7 15 15 0 8 -7 15 -15 15 -8 0 -15 5 -15 10 0 6 5 10 11 10 11
0 39 -25 39 -35 0 -10 -28 -35 -39 -35 -6 0 -11 -4 -11 -10 0 -5 5 -10 10 -10
12 0 60 -45 60 -55 0 -4 8 -14 17 -23 12 -12 18 -13 21 -4 2 6 10 12 18 12 8
0 14 7 14 15 0 8 -7 15 -15 15 -8 0 -15 -7 -15 -15 0 -8 -4 -15 -10 -15 -5 0
-10 5 -10 11 0 14 25 39 39 39 6 0 11 5 11 10 0 6 -7 10 -15 10 -8 0 -15 5
-15 10 0 6 7 10 15 10 8 0 15 5 15 10 0 6 -7 10 -15 10 -8 0 -15 7 -15 15 0 8
7 15 15 15 8 0 15 5 15 10 0 6 -7 10 -15 10 -8 0 -15 5 -15 10 0 6 7 10 15 10
8 0 15 5 15 10 0 6 -5 10 -11 10 -6 0 -17 6 -25 14 -8 8 -14 19 -14 25 0 6 -4
11 -10 11 -5 0 -10 -7 -10 -15 0 -8 -4 -15 -10 -15 -5 0 -10 7 -10 15 0 8 -4
15 -10 15 -5 0 -10 -7 -10 -15 0 -8 -7 -15 -15 -15 -8 0 -15 7 -15 15 0 8 -4
15 -10 15 -5 0 -10 -6 -10 -14z m73 -28 c4 -10 8 -10 15 1 9 12 13 12 28 -3
14 -15 15 -19 3 -27 -12 -8 -12 -11 1 -20 11 -8 12 -12 3 -16 -7 -2 -13 -11
-13 -18 0 -7 6 -16 13 -18 9 -4 8 -8 -3 -16 -13 -9 -13 -12 -1 -20 12 -8 12
-12 -2 -26 -16 -15 -19 -14 -43 10 l-26 26 21 18 c12 10 21 21 21 25 0 11 -48
56 -60 56 -5 0 -10 5 -10 10 0 6 7 10 15 10 8 0 15 5 15 10 0 14 17 12 23 -2z"/>
<path d="M1410 1605 c0 -12 52 -57 58 -51 3 4 0 11 -8 17 -13 8 -13 10 0 18 8
6 11 13 7 18 -5 4 -13 1 -18 -7 -8 -11 -12 -12 -16 -2 -5 12 -23 17 -23 7z"/>
<path d="M1442 1504 c-11 -12 -10 -17 3 -30 9 -9 19 -13 23 -10 3 4 0 12 -8
17 -11 8 -12 12 -2 16 13 5 17 23 5 23 -5 -1 -14 -7 -21 -16z"/>
<path d="M1490 1645 c0 -8 7 -15 15 -15 8 0 15 7 15 15 0 8 -7 15 -15 15 -8 0
-15 -7 -15 -15z"/>
<path d="M1450 1345 c0 -3 11 -17 25 -30 25 -26 45 -32 45 -15 0 6 -7 10 -15
10 -8 0 -15 5 -15 10 0 6 7 10 15 10 8 0 15 5 15 10 0 14 -27 12 -34 -2 -5
-10 -7 -10 -12 0 -6 12 -24 17 -24 7z"/>
<path d="M1490 1255 c0 -8 7 -15 15 -15 8 0 15 7 15 15 0 8 -7 15 -15 15 -8 0
-15 -7 -15 -15z"/>
<path d="M1580 1646 c0 -8 6 -16 12 -18 15 -5 -13 -38 -31 -38 -6 0 -11 -4
-11 -10 0 -5 5 -10 11 -10 11 0 39 -25 39 -35 0 -10 -28 -35 -39 -35 -6 0 -11
-4 -11 -10 0 -5 5 -10 11 -10 18 0 46 -33 31 -38 -18 -6 -15 -22 11 -45 22
-19 22 -19 0 -13 -12 4 -24 2 -28 -4 -3 -6 -11 -8 -16 -5 -5 4 -9 -1 -9 -9 0
-9 5 -16 11 -16 6 0 18 -7 26 -16 14 -13 14 -17 2 -25 -12 -8 -12 -11 1 -20
11 -8 12 -12 3 -16 -7 -2 -13 -11 -13 -18 0 -7 6 -16 13 -18 9 -4 8 -8 -3 -16
-13 -10 -13 -12 0 -21 13 -9 13 -11 0 -21 -11 -8 -12 -12 -2 -16 6 -2 12 -9
12 -14 0 -11 66 -79 76 -79 3 0 19 -14 36 -32 24 -26 31 -29 40 -17 7 11 11
11 15 2 6 -15 33 -17 33 -3 0 6 -7 10 -15 10 -8 0 -15 5 -15 10 0 6 7 10 15
10 8 0 15 5 15 10 0 6 -7 10 -15 10 -8 0 -15 5 -15 10 0 6 7 10 15 10 8 0 15
5 15 10 0 6 -5 10 -11 10 -11 0 -39 25 -39 35 0 10 27 35 38 35 6 0 12 6 15
13 2 6 8 8 13 4 5 -4 3 -12 -5 -16 -11 -7 -11 -12 0 -30 16 -25 29 -27 29 -6
0 8 5 15 10 15 6 0 10 -7 10 -15 0 -8 5 -15 10 -15 6 0 10 7 10 15 0 8 5 15
10 15 6 0 10 -7 10 -15 0 -8 5 -15 10 -15 15 0 12 19 -6 37 -13 13 -17 14 -24
3 -6 -10 -18 -3 -48 28 -42 44 -57 51 -64 30 -3 -9 -9 -8 -21 4 -20 20 -22 35
-5 40 7 3 -2 19 -25 41 -20 20 -38 37 -41 37 -2 0 -20 16 -40 36 -36 36 -45
54 -26 54 6 0 10 -7 10 -15 0 -8 5 -15 10 -15 6 0 10 6 10 14 0 8 6 16 13 19
8 3 4 12 -13 26 -21 19 -22 24 -10 32 11 8 12 12 3 16 -7 2 -13 11 -13 18 0 7
6 15 13 18 8 3 4 12 -13 26 -21 19 -22 24 -10 32 11 8 12 12 3 16 -7 2 -13 11
-13 19 0 8 -4 14 -10 14 -5 0 -10 -6 -10 -14z m27 -71 c8 -9 13 -19 10 -22 -6
-5 -37 21 -37 31 0 10 11 6 27 -9z m13 -64 c0 -5 -6 -11 -12 -14 -9 -3 -5 -11
11 -26 13 -11 22 -24 18 -27 -3 -3 -18 6 -32 20 -22 22 -24 28 -13 41 15 16
28 19 28 6z m36 -168 c7 -7 15 -13 19 -13 3 0 18 -12 33 -27 17 -17 22 -28 14
-31 -19 -6 -14 -20 15 -50 17 -17 28 -22 31 -14 4 14 32 16 32 2 0 -5 -5 -10
-10 -10 -12 0 -60 -45 -60 -56 0 -4 10 -15 22 -26 19 -16 20 -21 8 -29 -13 -8
-13 -10 -1 -18 12 -8 12 -12 -3 -26 -15 -16 -18 -15 -45 14 -16 17 -32 31 -35
31 -11 0 -56 48 -56 59 0 5 -6 12 -12 14 -10 4 -9 8 2 16 13 10 13 12 0 21
-13 9 -13 11 0 21 11 8 12 12 3 16 -7 2 -13 11 -13 18 0 7 6 16 13 18 9 4 8 8
-3 16 -13 10 -13 12 0 20 12 8 11 13 -9 31 -14 11 -21 23 -17 27 4 4 11 1 17
-7 8 -13 11 -12 21 5 9 15 13 16 16 5 3 -8 11 -20 18 -27z m184 -173 c0 -5 -4
-10 -10 -10 -5 0 -10 5 -10 10 0 6 5 10 10 10 6 0 10 -4 10 -10z"/>
<path d="M1620 1341 c0 -5 6 -12 13 -14 9 -4 8 -8 -3 -16 -13 -10 -13 -12 0
-22 11 -8 12 -12 3 -16 -7 -2 -13 -11 -13 -18 0 -7 6 -16 13 -18 9 -4 8 -8 -3
-16 -13 -10 -13 -12 0 -21 13 -9 13 -11 0 -21 -11 -8 -12 -12 -2 -16 6 -2 12
-9 12 -15 0 -11 25 -38 35 -38 4 0 20 -14 36 -31 16 -18 33 -29 37 -25 3 4 0
11 -8 17 -13 8 -13 10 0 18 12 8 11 13 -8 29 -27 24 -27 30 -1 53 l22 19 -32
29 c-33 31 -39 47 -19 53 9 3 8 9 -4 21 -9 9 -20 17 -25 17 -5 0 -15 9 -23 20
-15 21 -30 26 -30 11z m40 -41 c0 -5 7 -10 15 -10 8 0 15 -4 15 -10 0 -5 -7
-10 -15 -10 -8 0 -15 -7 -15 -15 0 -8 5 -15 10 -15 6 0 22 -11 36 -25 l26 -26
-21 -18 c-26 -23 -26 -29 1 -52 11 -11 18 -22 15 -26 -4 -3 -15 4 -26 15 -10
12 -23 22 -30 22 -6 0 -11 6 -11 14 0 8 -6 17 -12 19 -10 4 -9 8 2 16 13 10
13 12 0 21 -13 9 -13 11 0 21 11 8 12 12 3 16 -7 2 -13 11 -13 18 0 7 6 16 13
19 10 5 10 7 0 12 -15 7 -17 24 -3 24 6 0 10 -4 10 -10z"/>
<path d="M1660 1210 c0 -5 7 -10 15 -10 8 0 15 -4 15 -10 0 -5 -7 -10 -15 -10
-8 0 -15 -4 -15 -10 0 -15 19 -12 36 5 14 13 14 17 0 30 -17 17 -36 20 -36 5z"/>
<path d="M1550 1535 c0 -8 7 -15 15 -15 8 0 15 7 15 15 0 8 -7 15 -15 15 -8 0
-15 -7 -15 -15z"/>
<path d="M2553 1285 c-13 -13 -23 -27 -23 -30 0 -10 -28 -35 -39 -35 -6 0 -11
-6 -11 -12 0 -9 -4 -8 -11 2 -8 11 -12 12 -16 3 -2 -7 -9 -13 -14 -13 -13 0
-59 -46 -59 -60 0 -5 -4 -10 -10 -10 -5 0 -10 7 -10 15 0 8 -4 15 -10 15 -5 0
-10 -7 -10 -15 0 -8 -7 -15 -15 -15 -8 0 -15 7 -15 15 0 8 -4 15 -10 15 -5 0
-10 -5 -10 -11 0 -6 -7 -18 -16 -26 -13 -14 -17 -14 -26 -2 -7 11 -11 11 -15
2 -2 -7 -11 -13 -19 -13 -8 0 -14 -4 -14 -10 0 -5 7 -10 15 -10 8 0 15 -4 15
-10 0 -5 -5 -10 -11 -10 -7 0 -20 -9 -30 -21 -17 -20 -19 -20 -35 -4 -14 13
-15 18 -4 25 11 7 10 12 -4 25 -16 16 -18 16 -36 -5 l-19 -22 -22 21 c-26 24
-36 26 -42 9 -3 -9 -12 -5 -26 12 -13 14 -25 20 -29 15 -4 -6 -15 -16 -24 -24
-16 -12 -20 -10 -38 10 -17 21 -21 22 -30 9 -9 -13 -11 -13 -20 0 -8 13 -14
11 -37 -13 -24 -23 -26 -29 -13 -37 13 -9 13 -11 0 -20 -13 -8 -13 -12 3 -27
15 -15 19 -16 26 -4 8 12 12 12 25 -2 19 -19 20 -34 4 -40 -7 -2 -9 -8 -5 -13
4 -5 13 -2 18 6 8 11 12 12 16 3 5 -14 23 -18 23 -5 0 5 -9 18 -21 31 -12 12
-18 25 -14 29 3 3 10 0 15 -8 5 -8 12 -11 17 -7 4 5 1 12 -7 18 -13 8 -13 10
0 19 13 9 13 11 0 19 -8 6 -11 14 -6 18 5 4 11 2 13 -4 6 -17 30 -17 35 -1 3
9 10 8 23 -5 15 -16 16 -20 4 -28 -12 -8 -12 -11 1 -20 11 -8 12 -12 3 -16 -7
-2 -13 -11 -13 -19 0 -8 -4 -14 -10 -14 -5 0 -10 7 -10 15 0 8 -7 15 -15 15
-8 0 -15 -7 -15 -15 0 -8 6 -15 14 -15 8 0 17 -6 19 -12 4 -10 8 -9 16 2 10
13 12 13 21 0 9 -13 11 -13 20 0 9 13 11 13 21 0 8 -11 12 -12 16 -2 2 6 11
12 19 12 8 0 14 7 14 15 0 8 -7 15 -15 15 -8 0 -15 -7 -15 -15 0 -8 -4 -15
-10 -15 -5 0 -10 6 -10 14 0 8 -6 17 -12 19 -10 4 -9 8 2 16 13 9 13 12 1 20
-12 8 -11 12 4 28 13 13 20 14 23 5 2 -6 8 -12 14 -12 5 0 17 -7 25 -16 14
-13 14 -17 2 -24 -7 -5 -10 -12 -6 -17 5 -4 12 -1 17 7 5 8 12 11 15 8 4 -4
-2 -17 -14 -29 -12 -13 -21 -26 -21 -31 0 -13 18 -9 23 5 4 9 8 8 16 -3 5 -8
14 -11 18 -6 4 5 2 11 -4 13 -17 6 -16 21 3 40 13 14 17 14 25 2 8 -11 13 -10
28 9 24 27 29 27 52 1 l19 -22 29 32 c31 33 47 39 54 19 2 -8 20 4 45 30 22
23 45 42 51 42 6 0 11 7 11 15 0 8 -7 15 -15 15 -8 0 -15 -7 -15 -15 0 -8 -4
-15 -10 -15 -5 0 -10 5 -10 11 0 13 25 39 38 39 6 0 13 6 15 13 4 9 8 8 16 -3
7 -10 11 -11 11 -2 0 6 5 12 11 12 10 0 40 28 82 79 31 39 15 43 -20 6z m-243
-165 c0 -14 27 -12 33 3 4 9 8 8 16 -3 10 -13 12 -13 20 0 6 8 13 11 17 8 3
-4 -6 -19 -22 -35 -17 -17 -29 -23 -32 -15 -6 20 -22 14 -53 -19 -27 -29 -30
-30 -45 -14 -15 14 -15 18 -3 26 12 8 12 10 -1 18 -8 6 -11 13 -7 18 5 4 12 1
17 -7 8 -13 12 -11 27 7 19 24 33 29 33 13z m-447 -22 c4 -10 8 -9 16 2 5 8
13 11 18 7 4 -5 1 -12 -7 -18 -13 -8 -13 -10 -1 -18 12 -8 11 -12 -3 -27 -15
-14 -19 -15 -27 -3 -8 12 -10 12 -18 -1 -6 -8 -13 -11 -18 -7 -4 5 -1 12 7 18
13 8 13 10 1 18 -12 8 -12 11 0 25 17 19 26 20 32 4z m134 -3 c8 -9 13 -19 10
-22 -6 -5 -37 21 -37 31 0 10 11 6 27 -9z m143 -14 c0 -5 -6 -12 -12 -14 -10
-4 -9 -8 2 -16 8 -5 11 -13 8 -17 -4 -3 -14 1 -23 10 -13 13 -14 18 -3 30 15
17 28 20 28 7z m-130 -41 c0 -5 -4 -10 -10 -10 -5 0 -10 5 -10 10 0 6 5 10 10
10 6 0 10 -4 10 -10z m0 -45 c0 -8 -4 -15 -10 -15 -5 0 -10 7 -10 15 0 8 5 15
10 15 6 0 10 -7 10 -15z"/>
<path d="M2271 1084 c-12 -14 -21 -28 -18 -31 6 -5 57 41 57 52 0 11 -16 3
-39 -21z"/>
<path d="M2340 1100 c0 -5 5 -10 10 -10 6 0 10 5 10 10 0 6 -4 10 -10 10 -5 0
-10 -4 -10 -10z"/>
<path d="M1840 1084 c0 -10 31 -36 37 -31 3 3 -2 13 -10 22 -16 15 -27 19 -27
9z"/>
<path d="M1770 1145 c0 -8 6 -15 14 -15 8 0 16 -6 19 -12 2 -8 8 -9 13 -4 5 5
4 11 -3 13 -7 3 -13 11 -13 19 0 8 -7 14 -15 14 -8 0 -15 -7 -15 -15z"/>
<path d="M1950 1060 c0 -5 -7 -10 -15 -10 -21 0 -19 -13 6 -28 24 -15 41 -6
19 9 -11 8 -12 12 -2 16 14 6 16 23 2 23 -5 0 -10 -4 -10 -10z"/>
<path d="M2030 1061 c0 -5 6 -12 13 -14 9 -4 8 -8 -3 -16 -22 -15 -5 -24 19
-9 25 15 27 28 6 28 -8 0 -15 5 -15 10 0 6 -4 10 -10 10 -5 0 -10 -4 -10 -9z"/>
<path d="M2180 995 c0 -8 5 -15 10 -15 6 0 10 7 10 15 0 8 -4 15 -10 15 -5 0
-10 -7 -10 -15z"/>
<path d="M220 1450 c0 -5 5 -10 10 -10 6 0 10 5 10 10 0 6 -4 10 -10 10 -5 0
-10 -4 -10 -10z"/>
<path d="M3200 800 c0 -5 5 -10 10 -10 6 0 10 5 10 10 0 6 -4 10 -10 10 -5 0
-10 -4 -10 -10z"/>
</g>
</svg>
